PathFileType	4	(X/Y/Z)	./resultDataOpenSim/trcMotMarkerGrf/sub06/qtm-15-08.trc
DataRate	CameraRate	NumFrames	NumMarkers	Units	OrigDataRate	OrigDataStartFrame	OrigNumFrames
250.000000	250.000000	14	24	m	250.000000	366	487
Frame#	Time	L.Toe.Tip			R.Toe.Tip			L.Ankle.Lat			R.Ankle.Lat			L.Ankle.Med			R.Ankle.Med			L.Heel			R.Heel			L.Knee.Lat			R.Knee.Lat			L.Knee.Med			R.Knee.Med			L.Thigh.Upper			R.Thigh.Upper			L.ASIS			R.ASIS			V.Sacral			L.Acromium			R.Acromium			C7			L.Elbow			R.Elbow			L.Wrist.Lat			R.Wrist.Lat
		X1	Y1	Z1	X2	Y2	Z2	X3	Y3	Z3	X4	Y4	Z4	X5	Y5	Z5	X6	Y6	Z6	X7	Y7	Z7	X8	Y8	Z8	X9	Y9	Z9	X10	Y10	Z10	X11	Y11	Z11	X12	Y12	Z12	X13	Y13	Z13	X14	Y14	Z14	X15	Y15	Z15	X16	Y16	Z16	X17	Y17	Z17	X18	Y18	Z18	X19	Y19	Z19	X20	Y20	Z20	X21	Y21	Z21	X22	Y22	Z22	X23	Y23	Z23	X24	Y24	Z24

366	1.46	1.1351972	0.13224226	-0.17238902	0.97871208	0.036102336	-0.0062142445	1.0668254	0.24501764	-0.19410899	0.85504845	0.093948898	0.032470099	1.0772007	0.25180701	-0.11007766	0.87956725	0.12328378	-0.050168901	0.98932083	0.26187913	-0.15143194	0.7999888	0.095606088	-0.028171371	1.2902701	0.54906458	-0.169647	0.97331284	0.46884211	0.084266869	1.2676633	0.53491018	-0.047799001	0.95430008	0.47103612	-0.045423491	1.0630691	0.87220456	-0.18402979	0.99146886	0.83834745	0.15462869	1.1174667	0.91014623	-0.1238938	1.093647	0.89557482	0.11993138	0.92495389	0.98232743	-0.014127403	1.1043001	1.3839365	-0.18423315	1.0915374	1.3705103	0.16883152	1.0264247	1.4167814	-0.0085550058	0.98209892	1.0966298	-0.25980478	1.1078252	1.0551918	0.27329646	1.0748442	0.87611067	-0.31326607	1.3548171	1.0798348	0.21167137
367	1.464	1.1526212	0.13038553	-0.17233736	0.97884076	0.036157583	-0.0062714901	1.0809046	0.24090814	-0.19384503	0.85563904	0.094792868	0.032596029	1.0918494	0.2478455	-0.10990919	0.88058195	0.12379808	-0.049994331	1.0027615	0.25545995	-0.15125509	0.80070322	0.096809256	-0.028143653	1.2976288	0.54984882	-0.1684844	0.97567473	0.46922434	0.083974016	1.2744417	0.53554257	-0.046954572	0.95693163	0.47143608	-0.045911342	1.0704422	0.87278955	-0.18403946	0.99642508	0.83849154	0.15455675	1.1241761	0.91064825	-0.12342349	1.0988448	0.8954562	0.12033337	0.93082775	0.98241323	-0.014775162	1.1095777	1.3842199	-0.18410862	1.096437	1.3709861	0.16891234	1.031346	1.417065	-0.0085745512	0.98473271	1.0983626	-0.25968556	1.117971	1.0563018	0.27348488	1.0744811	0.87716047	-0.31492267	1.3638179	1.0854239	0.20981877
368	1.468	1.170024	0.12853694	-0.17213906	0.97897037	0.036150535	-0.0063453578	1.0950628	0.23671887	-0.19345832	0.85625866	0.095599682	0.032728671	1.1062778	0.24377243	-0.10950345	0.88154764	0.12434238	-0.049796729	1.016339	0.24895771	-0.15094742	0.80140333	0.098008136	-0.028068859	1.3048539	0.55047468	-0.16734816	0.97805747	0.46957184	0.083709972	1.2811421	0.53602905	-0.046124453	0.95963948	0.47176484	-0.046321873	1.0777195	0.87327955	-0.18403169	1.0017356	0.83869189	0.15480145	1.1309813	0.9110717	-0.12300069	1.1040957	0.89526808	0.12069315	0.93665423	0.98242272	-0.015405137	1.1148646	1.3844473	-0.18397254	1.1013514	1.371366	0.16899222	1.0362897	1.4172223	-0.0086158303	0.98743614	1.1000337	-0.25951837	1.1280985	1.0574042	0.27366869	1.074206	0.87820416	-0.31650123	1.3725641	1.0906088	0.20779926
369	1.472	1.1873831	0.12667839	-0.17180527	0.97907439	0.036064703	-0.0064522379	1.1093055	0.23246836	-0.19297302	0.85690382	0.09637514	0.032872388	1.1203987	0.23959337	-0.10890865	0.88241135	0.12492219	-0.049616289	1.0300564	0.24238652	-0.15052048	0.80208936	0.099200084	-0.02794868	1.3119444	0.55094292	-0.16624243	0.98046197	0.46988224	0.083473978	1.2877676	0.53637247	-0.045311347	0.96241231	0.47203139	-0.046690941	1.0848473	0.87367003	-0.1839985	1.0070531	0.8387967	0.15498801	1.1378525	0.91141195	-0.12263511	1.109403	0.89505353	0.12099289	0.94245036	0.98234361	-0.016033317	1.1201554	1.3846166	-0.18382724	1.1062858	1.3716532	0.16907377	1.041256	1.4172371	-0.0086827126	0.99019746	1.1016642	-0.25925923	1.1381808	1.0584441	0.27386776	1.0740283	0.87923769	-0.31800525	1.3810739	1.095477	0.20558336
370	1.476	1.2047085	0.12482456	-0.17132802	0.97913844	0.035909166	-0.0065924084	1.1236307	0.22818398	-0.19242506	0.85755891	0.09714349	0.033036542	1.1344389	0.23537529	-0.10822911	0.8831887	0.12551449	-0.049463872	1.0439164	0.23575816	-0.14998288	0.80276326	0.10037555	-0.027797647	1.3189056	0.55125251	-0.16516837	0.98290875	0.47015171	0.083242983	1.2943193	0.53657113	-0.044517835	0.96523763	0.4722376	-0.047033878	1.091862	0.87396384	-0.18395768	1.0120972	0.83869018	0.15479926	1.1447206	0.91166482	-0.12229838	1.1147631	0.89482207	0.12123761	0.94824797	0.98217514	-0.016671127	1.1254493	1.3847275	-0.18367435	1.111243	1.3718485	0.16915922	1.0462413	1.4171335	-0.0087555678	0.99302336	1.103263	-0.25890681	1.1481836	1.0593717	0.27406713	1.0739503	0.88025443	-0.31943852	1.3894511	1.1002143	0.20329582
371	1.48	1.2220192	0.12299945	-0.17069186	0.97918829	0.035752667	-0.00671789	1.1380299	0.22387776	-0.19182267	0.85820431	0.097933971	0.033226734	1.1487088	0.23120395	-0.10751566	0.88392049	0.1261082	-0.049318516	1.0579227	0.22909099	-0.14933383	0.80343037	0.10153602	-0.027623116	1.3257419	0.5514026	-0.16412608	0.98541623	0.47038116	0.082998648	1.3007955	0.53662438	-0.043744425	0.96809984	0.4723812	-0.04735565	1.0988101	0.87416193	-0.18392246	1.0168181	0.83835697	0.15417906	1.1514578	0.91183364	-0.12191585	1.1201583	0.89454848	0.12144297	0.95407942	0.98192654	-0.017316084	1.130749	1.3847807	-0.18351359	1.1162156	1.3719504	0.16924698	1.0512472	1.4169403	-0.0088119791	0.9959267	1.1048225	-0.25850479	1.1580757	1.0601986	0.27421066	1.0739803	0.88124944	-0.32080458	1.3978005	1.1049519	0.20110239
372	1.484	1.2393168	0.1212132	-0.16988696	0.9792786	0.035690244	-0.0067539198	1.1524877	0.21952558	-0.19111044	0.85883796	0.098751839	0.033440622	1.1633081	0.2271146	-0.10673872	0.88463486	0.12670446	-0.049154874	1.0720803	0.22240462	-0.1485544	0.80409312	0.10269338	-0.027420895	1.3324491	0.55139753	-0.16311444	0.98798215	0.47057766	0.082753558	1.3072064	0.53653442	-0.042983554	0.97098798	0.47246177	-0.047658146	1.1057121	0.87425852	-0.18388856	1.0213493	0.8378568	0.15329334	1.1579788	0.9119288	-0.12143224	1.1255548	0.89419678	0.12161594	0.95995335	0.98160362	-0.017947778	1.1360543	1.3847764	-0.18334518	1.1211947	1.3719604	0.16933579	1.0562786	1.4166758	-0.0088392661	0.99890665	1.1063294	-0.25811073	1.1678518	1.0610064	0.27424587	1.0741354	0.88222221	-0.32211066	1.4061439	1.1096838	0.19906381
373	1.488	1.2565876	0.11946723	-0.16890825	0.9794321	0.035742119	-0.0066805232	1.166987	0.21508672	-0.19020345	0.85948254	0.099569599	0.033671248	1.1780365	0.22305197	-0.10583537	0.88534713	0.12729873	-0.04896081	1.086392	0.21570868	-0.147631	0.8047507	0.10385193	-0.027187052	1.3390195	0.55124555	-0.16212949	0.99058671	0.47074619	0.082543226	1.3135511	0.5363033	-0.042231282	0.97389785	0.47248337	-0.04793957	1.1125776	0.87424413	-0.18384763	1.0259009	0.83728409	0.15239063	1.1643651	0.9119522	-0.12088935	1.1309363	0.89374321	0.12176256	0.96585145	0.98120271	-0.018542437	1.1413625	1.384715	-0.18317058	1.1261847	1.3718855	0.16942917	1.0613397	1.4163519	-0.0088345565	1.0019508	1.1077769	-0.25775678	1.1775334	1.0618773	0.27416586	1.074414	0.88317031	-0.32336595	1.4144396	1.1143319	0.19714086
374	1.492	1.2738182	0.11776747	-0.16775177	0.97960705	0.035834607	-0.0065606134	1.1815233	0.21055321	-0.18907304	0.86015797	0.10035468	0.033918468	1.1926182	0.21891755	-0.1047659	0.88606719	0.1278826	-0.048735111	1.1008454	0.20901164	-0.14660373	0.80540621	0.10500429	-0.026925187	1.3454495	0.55095094	-0.16116904	0.99321735	0.4708858	0.082393399	1.3197937	0.53593247	-0.041497243	0.97682863	0.4724502	-0.048191685	1.1194247	0.87411362	-0.18380855	1.0306334	0.83671391	0.15163655	1.1707943	0.91188901	-0.12039222	1.1363454	0.89319419	0.12190301	0.97175556	0.98071372	-0.019091716	1.1466742	1.3845966	-0.18299058	1.1312018	1.3717343	0.16953197	1.0664294	1.4159754	-0.0088010435	1.0050499	1.1091651	-0.25741189	1.1871469	1.06283	0.27400252	1.0747684	0.88408559	-0.32456494	1.4226504	1.1188341	0.19527664
375	1.496	1.2909983	0.11612287	-0.16641343	0.97974908	0.035894632	-0.0064655948	1.1961053	0.20596635	-0.18776881	0.8608345	0.10109729	0.034195843	1.2069317	0.21463321	-0.10350231	0.88679896	0.12845509	-0.048482262	1.1154157	0.20233823	-0.14554953	0.80606788	0.10614651	-0.026638583	1.3517405	0.55050899	-0.16023755	0.99587831	0.47099406	0.082301627	1.3259075	0.53542316	-0.040789494	0.97978357	0.4723644	-0.048402395	1.1262666	0.87387328	-0.18379595	1.0355435	0.83614202	0.15099853	1.1773499	0.91172162	-0.11999812	1.1418606	0.8925768	0.12206415	0.97769473	0.98012163	-0.019592845	1.1519951	1.3844191	-0.18280684	1.1362645	1.3715086	0.16964144	1.0715409	1.4155431	-0.0087461098	1.0082152	1.1104915	-0.25700881	1.1967035	1.0638219	0.27379333	1.0751458	0.8849597	-0.32568673	1.4307645	1.123168	0.19343584
376	1.5	1.3081211	0.11454177	-0.16488971	0.97984672	0.035909271	-0.0064140858	1.2107408	0.20138057	-0.1863512	0.86141531	0.1018037	0.034517509	1.2209504	0.21014275	-0.10198141	0.88754108	0.12902039	-0.048210272	1.1300903	0.19571789	-0.14447675	0.80674008	0.1072825	-0.026323107	1.357894	0.5499111	-0.15934198	0.99857895	0.47107087	0.08225027	1.3319233	0.53477247	-0.040102296	0.98276907	0.47223075	-0.048563701	1.1330737	0.87353173	-0.18382325	1.0405405	0.83552278	0.1503687	1.1839835	0.91144426	-0.11968461	1.1475241	0.89190636	0.1222511	0.98378866	0.97940445	-0.020020481	1.1573304	1.3841785	-0.18262362	1.1413847	1.3712025	0.16974443	1.0766661	1.4150471	-0.0086773626	1.011489	1.1117467	-0.25652054	1.2061943	1.0647904	0.27355674	1.0755629	0.88578829	-0.32672677	1.438783	1.127337	0.19160911
377	1.504	1.325184	0.11303499	-0.16317994	0.97992036	0.035899579	-0.0063872017	1.2254292	0.19682415	-0.18483716	0.86181969	0.1024754	0.034879613	1.2346897	0.20549585	-0.10016094	0.88828997	0.12958174	-0.04792287	1.1448748	0.189157	-0.14328826	0.80741891	0.10841567	-0.025971072	1.3639086	0.5491535	-0.15848393	1.0013287	0.47111645	0.082228242	1.3378804	0.53397111	-0.039426594	0.9857876	0.47205941	-0.048674926	1.1397995	0.87308344	-0.18388518	1.0455948	0.83484323	0.14973107	1.1906264	0.91106191	-0.11941075	1.1533118	0.89117187	0.12242884	0.99023794	0.9785314	-0.020326577	1.1626801	1.3838703	-0.18244323	1.1465613	1.370811	0.1698271	1.0818	1.414486	-0.0085963882	1.0149221	1.1129265	-0.2559662	1.2156019	1.0656822	0.27329485	1.0760907	0.88656829	-0.327709	1.4467145	1.1313475	0.18980118
378	1.508	1.3421823	0.11161484	-0.16127999	0.97998888	0.035885283	-0.0063625881	1.2401614	0.19229578	-0.18321377	0.862116	0.10311846	0.035265098	1.2483365	0.20096041	-0.098141229	0.88904384	0.13014472	-0.047613146	1.1597601	0.18263922	-0.14191111	0.80810121	0.1095464	-0.025577847	1.3697842	0.54823726	-0.15765677	1.0041354	0.4711279	0.082235441	1.3437677	0.53301131	-0.038760431	0.98883647	0.47186172	-0.048739186	1.146455	0.87251171	-0.18397416	1.0507093	0.8341048	0.14909035	1.1972553	0.91058053	-0.11916023	1.1591742	0.89035464	0.12255086	0.99716146	0.97748527	-0.020499378	1.1680388	1.3834937	-0.18226325	1.1517792	1.3703373	0.16988838	1.0869414	1.4138577	-0.0084989124	1.0185197	1.114034	-0.25537927	1.2249129	1.066456	0.27301377	1.0767709	0.88729775	-0.3286558	1.4545701	1.1351945	0.18801436
379	1.512	1.3591024	0.11029228	-0.15917383	0.98005873	0.035875852	-0.0063283955	1.2549176	0.1877831	-0.18146675	0.86249567	0.10376223	0.035663819	1.2621435	0.19678478	-0.096110299	0.88980237	0.13071616	-0.047272072	1.1747053	0.17615088	-0.14038781	0.80878769	0.11067584	-0.025142819	1.3755254	0.54716294	-0.15684954	1.0070035	0.47110032	0.082275027	1.3495493	0.53189184	-0.038103404	0.99191573	0.47164581	-0.048758642	1.1530946	0.87180785	-0.18408303	1.0558632	0.83329302	0.14840888	1.2038721	0.91000192	-0.11893602	1.1650869	0.88945176	0.12260522	1.0043577	0.97632159	-0.020640498	1.1733978	1.3830561	-0.18208179	1.1570251	1.3697903	0.16994064	1.0920913	1.4131529	-0.0083808361	1.0222333	1.1150583	-0.25481057	1.2341263	1.0670903	0.27271899	1.0775925	0.88797836	-0.32956909	1.462353	1.138869	0.18624626
